HIERARCHY
ROOT Hips
{
	OFFSET -0.001795 -0.223333 0.028219
	CHANNELS 6 Xposition Yposition Zposition Zrotation Yrotation Xrotation 
	JOINT LeftUpLeg
	{
		OFFSET 0.069520 -0.091406 -0.006815
		CHANNELS 3 Zrotation Yrotation Xrotation
		JOINT LeftLeg
		{
			OFFSET 0.034277 -0.375199 -0.004496
			CHANNELS 3 Zrotation Yrotation Xrotation
			JOINT LeftFoot
			{
				OFFSET -0.013596 -0.397961 -0.043693
				CHANNELS 3 Zrotation Yrotation Xrotation
				JOINT LeftToe
				{
					OFFSET 0.026358 -0.055791 0.119288
					CHANNELS 3 Zrotation Yrotation Xrotation
					End Site
					{
						OFFSET 0.000000 0.000000 0.000000
					}
				}
			}
		}
	}
	JOINT RightUpLeg
	{
		OFFSET -0.067670 -0.090522 -0.004320
		CHANNELS 3 Zrotation Yrotation Xrotation
		JOINT RightLeg
		{
			OFFSET -0.038290 -0.382569 -0.008850
			CHANNELS 3 Zrotation Yrotation Xrotation
			JOINT RightFoot
			{
				OFFSET 0.015774 -0.398415 -0.042312
				CHANNELS 3 Zrotation Yrotation Xrotation
				JOINT RightToe
				{
					OFFSET -0.025372 -0.048144 0.123348
					CHANNELS 3 Zrotation Yrotation Xrotation
					End Site
					{
						OFFSET 0.000000 0.000000 0.000000
					}
				}
			}
		}
	}
	JOINT Spine
	{
		OFFSET -0.002533 0.108963 -0.026696
		CHANNELS 3 Zrotation Yrotation Xrotation
		JOINT Spine1
		{
			OFFSET 0.005487 0.135180 0.001092
			CHANNELS 3 Zrotation Yrotation Xrotation
			JOINT Spine2
			{
				OFFSET 0.001457 0.052922 0.025425
				CHANNELS 3 Zrotation Yrotation Xrotation
				JOINT Neck
				{
					OFFSET -0.002778 0.213870 -0.042857
					CHANNELS 3 Zrotation Yrotation Xrotation
					JOINT Head
					{
						OFFSET 0.005152 0.064970 0.051349
						CHANNELS 3 Zrotation Yrotation Xrotation
						End Site
						{
							OFFSET 0.000000 0.000000 0.000000
						}
					}
				}
				JOINT LeftShoulder
				{
					OFFSET 0.078845 0.121749 -0.034090
					CHANNELS 3 Zrotation Yrotation Xrotation
					JOINT LeftArm
					{
						OFFSET 0.090977 0.030469 -0.008868
						CHANNELS 3 Zrotation Yrotation Xrotation
						JOINT LeftForeArm
						{
							OFFSET 0.259612 -0.012772 -0.027456
							CHANNELS 3 Zrotation Yrotation Xrotation
							JOINT LeftHand
							{
								OFFSET 0.249234 0.008986 -0.001171
								CHANNELS 3 Zrotation Yrotation Xrotation
								End Site
								{
									OFFSET 0.000000 0.000000 0.000000
								}
							}
						}
					}
				}
				JOINT RightShoulder
				{
					OFFSET -0.081759 0.118833 -0.038615
					CHANNELS 3 Zrotation Yrotation Xrotation
					JOINT RightArm
					{
						OFFSET -0.096012 0.032551 -0.009143
						CHANNELS 3 Zrotation Yrotation Xrotation
						JOINT RightForeArm
						{
							OFFSET -0.253742 -0.013329 -0.021401
							CHANNELS 3 Zrotation Yrotation Xrotation
							JOINT RightHand
							{
								OFFSET -0.255298 0.007772 -0.005559
								CHANNELS 3 Zrotation Yrotation Xrotation
								End Site
								{
									OFFSET 0.000000 0.000000 0.000000
								}
							}
						}
					}
				}
			}
		}
	}
}
MOTION
Frames: 15
Frame Time: 0.050000
-0.023561 0.921308 -0.052478 -0.777920 -0.494877 16.094135 4.261597 -1.570657 -26.830699 -2.062766 0.069510 10.490961 4.133506 9.547381 2.687452 0.000000 0.000000 0.000000 -2.698544 2.429805 -29.088637 -1.082474 0.718768 12.220434 -0.380819 -2.780786 3.743543 0.000000 0.000000 0.000000 3.553462 -1.499202 17.322984 1.017304 -0.183305 -7.818319 -7.015357 5.444021 11.729270 13.801178 -2.991536 -33.402908 0.000000 0.000000 0.000000 -2.900249 -19.767487 6.872023 -66.267584 -43.058406 17.312751 11.832605 -48.195388 -3.374235 0.000000 0.000000 0.000000 5.415056 9.446882 4.172715 75.699476 34.099462 18.342611 7.809973 60.139209 9.045360 0.000000 0.000000 0.000000 
-0.024199 0.921492 -0.053085 -0.791351 -0.609518 16.162098 4.197206 -1.579235 -26.916267 -2.119290 0.081462 10.618910 4.163885 9.589857 2.622374 0.000000 0.000000 0.000000 -2.537486 2.486201 -29.287944 -1.167431 0.747169 12.382856 -0.458182 -2.937829 3.658474 0.000000 0.000000 0.000000 3.513044 -1.465175 17.023067 1.004379 -0.180276 -7.797138 -7.194644 5.280997 11.846572 13.638970 -2.969330 -33.300456 0.000000 0.000000 0.000000 -2.914736 -20.150532 7.040787 -66.456459 -43.476469 17.716573 14.660304 -47.936969 -4.562322 0.000000 0.000000 0.000000 5.857768 9.542120 4.234708 75.992116 34.151504 18.401527 6.126683 60.723365 8.180737 0.000000 0.000000 0.000000 
-0.024537 0.921558 -0.053178 -0.719338 -0.760954 16.181775 4.073345 -1.595328 -26.965667 -2.187421 0.097137 10.730036 4.306370 9.909270 2.810908 0.000000 0.000000 0.000000 -2.624578 2.489561 -29.405670 -1.105436 0.746554 12.567669 -0.461984 -2.909104 3.548680 0.000000 0.000000 0.000000 3.471113 -1.432593 16.761867 0.919142 -0.146619 -7.909695 -7.417231 5.012588 11.945445 13.294868 -2.869277 -33.243386 0.000000 0.000000 0.000000 -3.047896 -20.357462 7.160655 -66.729563 -44.140096 18.359997 16.718772 -47.077921 -5.302889 0.000000 0.000000 0.000000 6.159378 9.515905 4.216481 76.492959 34.076329 18.429514 5.329455 61.003505 7.735072 0.000000 0.000000 0.000000 
-0.024756 0.921600 -0.052774 -0.647977 -0.798808 16.184420 3.994701 -1.609587 -26.996741 -2.227036 0.104104 10.888170 4.341312 9.952840 2.699854 0.000000 0.000000 0.000000 -2.714156 2.490800 -29.613987 -1.002638 0.745577 12.964014 -0.583302 -3.093357 3.296935 0.000000 0.000000 0.000000 3.455862 -1.400526 16.383171 0.882281 -0.129580 -8.022955 -7.545528 4.887360 12.140374 13.180275 -2.847997 -33.232514 0.000000 0.000000 0.000000 -3.279840 -20.697677 7.321587 -67.153775 -44.354810 18.700913 18.597122 -46.667361 -6.023986 0.000000 0.000000 0.000000 6.704735 9.568845 4.271742 76.648699 34.144943 18.448018 4.405525 60.764019 7.158283 0.000000 0.000000 0.000000 
-0.025048 0.921575 -0.052041 -0.668093 -0.910888 16.047086 3.901316 -1.616242 -26.938264 -2.278354 0.112739 11.319586 4.367060 9.976268 2.599048 0.000000 0.000000 0.000000 -2.711311 2.496414 -29.576933 -0.897925 0.738290 13.220594 -0.530733 -2.917914 3.172539 0.000000 0.000000 0.000000 3.500167 -1.387686 16.133635 0.921640 -0.155959 -7.739865 -7.651477 4.863020 11.942383 13.077255 -2.833415 -33.065536 0.000000 0.000000 0.000000 -3.677436 -20.737605 7.365082 -67.537041 -44.449038 18.962934 19.459906 -46.392561 -6.353289 0.000000 0.000000 0.000000 6.966943 9.953946 4.457115 76.836472 34.385058 18.694478 3.113792 60.248401 6.304177 0.000000 0.000000 0.000000 
-0.025554 0.921424 -0.051202 -0.698448 -0.843206 16.054200 3.878775 -1.625540 -26.955075 -2.370739 0.127299 11.680801 4.370659 9.903191 2.214073 0.000000 0.000000 0.000000 -2.782060 2.494391 -29.784870 -0.672135 0.711824 13.718532 -0.583671 -2.867909 2.777375 0.000000 0.000000 0.000000 3.602952 -1.398121 15.961354 0.856828 -0.134686 -7.613057 -7.677711 4.807238 11.852632 13.120731 -2.882443 -32.904259 0.000000 0.000000 0.000000 -3.860926 -20.897933 7.441683 -67.825399 -44.592971 19.206018 20.398232 -46.176772 -6.718123 0.000000 0.000000 0.000000 7.301064 10.166177 4.579746 77.154785 34.925697 19.239187 2.205714 59.645202 5.693738 0.000000 0.000000 0.000000 
-0.026237 0.921097 -0.050455 -0.733126 -0.651225 16.026956 3.913595 -1.638407 -27.087751 -2.465081 0.139638 11.993654 4.305116 9.724768 1.971045 0.000000 0.000000 0.000000 -2.687764 2.506388 -29.875852 -0.698760 0.733147 14.123953 -0.703266 -3.084107 2.625180 0.000000 0.000000 0.000000 3.718586 -1.416289 15.817981 0.809274 -0.122674 -7.363239 -7.639234 4.818572 11.719771 13.052222 -2.850016 -32.818628 0.000000 0.000000 0.000000 -4.475659 -20.969969 7.499157 -67.646634 -44.340467 18.967826 21.438089 -46.567126 -7.258274 0.000000 0.000000 0.000000 7.360917 10.664854 4.824918 77.530656 35.685980 20.046177 0.507389 58.844668 4.647263 0.000000 0.000000 0.000000 
-0.026977 0.920919 -0.050000 -0.801294 -0.531825 16.054531 3.947151 -1.645684 -27.211857 -2.563300 0.157087 12.082004 4.244022 9.601300 1.947004 0.000000 0.000000 0.000000 -2.571223 2.529343 -29.976358 -0.719328 0.748305 14.404073 -0.796828 -3.212804 2.404743 0.000000 0.000000 0.000000 3.771906 -1.434249 15.860161 0.739804 -0.101817 -7.166246 -7.607598 5.081302 11.370427 13.290786 -2.882948 -32.902442 0.000000 0.000000 0.000000 -4.870908 -21.076764 7.521913 -67.565393 -44.194826 18.812977 22.096848 -46.816393 -7.662890 0.000000 0.000000 0.000000 7.425038 10.906764 4.986355 78.067772 36.768272 21.292573 -0.643558 57.860659 3.938950 0.000000 0.000000 0.000000 
-0.027580 0.920689 -0.049954 -0.837305 -0.110622 16.107948 3.910471 -1.691876 -27.425787 -2.577267 0.147842 12.319658 4.103928 9.287373 1.749529 0.000000 0.000000 0.000000 -2.614062 2.509651 -30.236191 -0.546629 0.721788 14.912477 -1.041691 -3.710181 2.199275 0.000000 0.000000 0.000000 3.919408 -1.488933 16.017896 0.756009 -0.101741 -7.198230 -7.600081 5.270239 11.343703 13.545490 -2.893915 -33.178138 0.000000 0.000000 0.000000 -5.109607 -21.119054 7.504001 -67.487975 -44.008245 18.580109 22.626217 -47.403597 -8.073000 0.000000 0.000000 0.000000 7.454632 11.211967 5.187799 78.498566 37.838171 22.484734 -2.386526 57.256917 3.019360 0.000000 0.000000 0.000000 
-0.027942 0.920370 -0.050257 -0.927477 0.307831 16.178018 4.035083 -1.711006 -27.704564 -2.602040 0.142347 12.361096 3.961650 9.022186 1.780752 0.000000 0.000000 0.000000 -2.446919 2.518990 -30.321374 -0.537763 0.717165 15.100202 -1.228401 -4.122876 2.124063 0.000000 0.000000 0.000000 4.107402 -1.556064 16.205215 0.748424 -0.100687 -6.996958 -7.438397 5.550886 11.113999 13.825693 -2.916966 -33.352538 0.000000 0.000000 0.000000 -5.513839 -21.242127 7.514335 -67.477239 -43.749697 18.341370 23.211868 -48.070696 -8.560631 0.000000 0.000000 0.000000 7.493140 11.432846 5.359118 78.891021 38.880375 23.702866 -3.591876 56.557495 2.383407 0.000000 0.000000 0.000000 
-0.028060 0.920055 -0.050730 -0.880837 0.738876 16.303636 3.880141 -1.790797 -28.022438 -2.447118 0.095614 12.498656 3.867353 8.850595 1.785739 0.000000 0.000000 0.000000 -2.602705 2.455784 -30.372085 -0.374543 0.663128 15.028575 -1.256574 -4.189877 2.168679 0.000000 0.000000 0.000000 4.204240 -1.608831 16.428721 0.814996 -0.120735 -6.996915 -7.373332 5.659582 11.119077 13.880355 -2.859373 -33.567374 0.000000 0.000000 0.000000 -6.034097 -21.171626 7.472425 -67.254799 -43.625585 18.138636 23.722936 -48.501669 -8.937305 0.000000 0.000000 0.000000 7.564935 11.646126 5.517095 79.285365 39.647002 24.636737 -4.918812 56.466109 1.746034 0.000000 0.000000 0.000000 
-0.028077 0.919812 -0.051222 -0.877500 1.296494 16.332425 3.716508 -1.883924 -28.376475 -2.410033 0.072001 12.569450 3.832444 8.849599 1.965136 0.000000 0.000000 0.000000 -2.595144 2.419865 -30.470892 -0.373541 0.650620 15.102615 -1.446197 -4.626121 2.155571 0.000000 0.000000 0.000000 4.321229 -1.663138 16.578995 0.907750 -0.157630 -6.760376 -7.224152 5.715202 10.944838 13.974567 -2.881049 -33.430574 0.000000 0.000000 0.000000 -6.724601 -21.329970 7.525823 -66.669708 -43.516497 17.846166 24.015634 -48.745056 -9.196464 0.000000 0.000000 0.000000 7.884488 11.923207 5.735551 79.132093 40.285890 25.180594 -5.892917 56.161866 1.272587 0.000000 0.000000 0.000000 
-0.027979 0.919590 -0.051773 -0.832499 1.775147 16.482940 3.673530 -1.945463 -28.659339 -2.443658 0.068458 12.496097 3.835576 8.984534 2.354068 0.000000 0.000000 0.000000 -2.710445 2.361122 -30.530692 -0.416870 0.638382 14.862437 -1.519409 -4.895180 2.464844 0.000000 0.000000 0.000000 4.396711 -1.715021 16.789195 0.884724 -0.141660 -6.810505 -7.128444 5.682254 10.990085 13.992275 -2.830084 -33.599285 0.000000 0.000000 0.000000 -6.767463 -21.215675 7.454242 -66.595765 -43.679000 17.894607 23.929906 -48.761689 -9.186028 0.000000 0.000000 0.000000 7.834861 12.062520 5.827992 79.415003 40.509788 25.584725 -6.342786 56.097843 1.067606 0.000000 0.000000 0.000000 
-0.027879 0.919541 -0.052427 -0.772404 2.363066 16.549848 3.510636 -2.055828 -29.151546 -2.457687 0.054409 12.577016 3.946006 9.330886 2.710645 0.000000 0.000000 0.000000 -2.703867 2.309412 -30.444762 -0.563980 0.650829 14.673057 -1.553385 -4.986208 2.578105 0.000000 0.000000 0.000000 4.358200 -1.745495 17.013408 0.957902 -0.157582 -6.926179 -7.002084 5.720069 11.190202 13.938153 -2.735673 -33.811497 0.000000 0.000000 0.000000 -6.918051 -21.201795 7.414053 -66.598672 -43.773464 17.893221 23.531887 -49.079472 -9.107259 0.000000 0.000000 0.000000 7.833002 12.021675 5.856947 79.419863 40.641132 25.775908 -6.381738 56.386523 1.120086 0.000000 0.000000 0.000000 
-0.027632 0.919475 -0.053220 -0.768763 2.890665 16.715162 3.521022 -2.112268 -29.420750 -2.527964 0.060640 12.339618 3.942503 9.443100 3.043440 0.000000 0.000000 0.000000 -2.824658 2.244038 -30.486454 -0.555475 0.626484 14.440593 -1.595078 -5.110843 2.731928 0.000000 0.000000 0.000000 4.428595 -1.803231 17.255140 0.967675 -0.157553 -6.873892 -6.897933 5.805931 11.188555 14.098460 -2.728654 -33.982217 0.000000 0.000000 0.000000 -7.048374 -21.065227 7.311312 -66.648458 -43.804057 17.878037 23.208149 -49.838803 -9.174113 0.000000 0.000000 0.000000 7.624341 11.870952 5.807906 79.731285 40.576408 26.012956 -6.445362 56.783195 1.153040 0.000000 0.000000 0.000000 
